<svg aria-hidden="true" style="position: absolute; width: 0; height: 0; overflow: hidden;" version="1.1" xmlns="http://www.w3.org/2000/svg" xmlns:xlink="http://www.w3.org/1999/xlink">
<defs>
<symbol id="icon-bootstrap" viewBox="0 0 32 32">
<path fill="#563d7c" style="fill: var(--color1, #563d7c)" d="M26.667 0h-21.333c-2.943 0.008-5.325 2.391-5.333 5.333v21.333c0 2.933 2.4 5.333 5.333 5.333h21.333c2.933 0 5.333-2.4 5.333-5.333v-21.333c0-2.933-2.4-5.333-5.333-5.333zM23.751 22.473c-0.267 0.643-0.689 1.209-1.231 1.645-0.56 0.453-1.269 0.827-2.143 1.093-0.872 0.271-1.909 0.407-3.111 0.407h-8.576v-18.667h9.069c1.677 0 3.021 0.377 4.027 1.147 1.013 0.773 1.517 1.925 1.517 3.48 0 0.94-0.229 1.747-0.691 2.413-0.459 0.663-1.12 1.181-1.973 1.541v0.061c1.139 0.24 2.020 0.78 2.6 1.62s0.877 1.901 0.877 3.183c0 0.717-0.139 1.4-0.4 2.037zM20.049 17.873c-0.547-0.5-1.315-0.744-2.307-0.744h-5.763v5.824h5.779c0.987 0 1.76-0.256 2.307-0.773 0.547-0.513 0.827-1.245 0.827-2.187-0.009-0.92-0.28-1.632-0.827-2.12zM19.249 14.109c0.528-0.448 0.787-1.089 0.787-1.925 0-0.939-0.233-1.605-0.707-1.987-0.469-0.38-1.147-0.577-2.037-0.577h-5.333v5.151h5.333c0.777 0 1.44-0.227 1.957-0.661z"></path>
</symbol>
<symbol id="icon-nuxt-dot-js" viewBox="0 0 32 32">
<path fill="#00c58e" style="fill: var(--color2, #00c58e)" d="M26.299 27.029l0.031-0.060c0.025-0.044 0.049-0.096 0.069-0.149l0.002-0.007 0.003-0.007c0.061-0.16 0.096-0.344 0.096-0.537 0-0.096-0.009-0.191-0.026-0.282l0.001 0.009 0.001 0.009c-0.056-0.313-0.166-0.592-0.319-0.841l0.006 0.010 0.007 0.011-7.089-12.471-1.083-1.893-8.161 14.364c-0.129 0.233-0.225 0.504-0.27 0.791l-0.002 0.014-0.001 0.015c-0.017 0.089-0.026 0.192-0.026 0.296 0 0.236 0.049 0.461 0.137 0.665l-0.004-0.011-0.004-0.011c0.022 0.053 0.044 0.098 0.069 0.141l-0.003-0.005-0.003-0.005c0.213 0.367 0.667 0.803 1.667 0.803h13.197c0.209 0 1.233-0.043 1.705-0.851zM17.996 14.608l6.479 11.397h-12.955zM31.661 25.187l-9.355-16.48c-0.096-0.173-0.636-1.049-1.576-1.049-0.423 0-1.029 0.18-1.523 1.047l-1.209 2.12 1.076 1.893 1.667-2.949 9.255 16.24h-3.52c0.014 0.078 0.022 0.168 0.022 0.26 0 0.198-0.036 0.387-0.102 0.561l0.004-0.011 0.004-0.011c-0.023 0.065-0.049 0.12-0.079 0.173l0.003-0.005 0.003-0.005-0.031 0.060c-0.473 0.807-1.496 0.849-1.696 0.849h5.505c0.203 0 1.223-0.043 1.696-0.849 0.209-0.367 0.36-0.983-0.143-1.844zM9.739 27.076c-0.019-0.032-0.039-0.073-0.057-0.114l-0.003-0.009-0.003-0.008c-0.087-0.194-0.138-0.42-0.138-0.658 0-0.103 0.009-0.204 0.028-0.301l-0.002 0.010-0.001 0.009h-7.561l11.239-19.776 3.689 6.485 1.069-1.893-3.216-5.665c-0.089-0.163-0.633-1.036-1.569-1.036-0.423 0-1.029 0.183-1.523 1.049l-11.384 20.016c-0.096 0.173-0.567 1.083-0.1 1.889 0.213 0.367 0.667 0.803 1.667 0.803h9.535c-0.993 0-1.453-0.429-1.669-0.801z"></path>
</symbol>
<symbol id="icon-typescript" viewBox="0 0 32 32">
<path fill="#007acc" style="fill: var(--color3, #007acc)" d="M0 16v16h32v-32h-32zM25.788 14.725c0.813 0.203 1.432 0.564 2.001 1.153 0.295 0.315 0.732 0.888 0.767 1.027 0.011 0.040-1.381 0.973-2.224 1.497-0.031 0.020-0.153-0.112-0.289-0.315-0.413-0.6-0.844-0.859-1.504-0.904-0.971-0.067-1.595 0.441-1.589 1.289-0.001 0.015-0.001 0.032-0.001 0.050 0 0.201 0.051 0.391 0.14 0.557l-0.003-0.006c0.213 0.441 0.611 0.707 1.853 1.244 2.292 0.987 3.272 1.636 3.881 2.56 0.68 1.031 0.833 2.677 0.371 3.901-0.507 1.331-1.767 2.235-3.54 2.533-0.548 0.097-1.848 0.083-2.437-0.024-1.285-0.229-2.504-0.864-3.256-1.697-0.295-0.324-0.869-1.173-0.833-1.233 0.015-0.021 0.147-0.103 0.293-0.188 0.144-0.081 0.681-0.392 1.189-0.687l0.92-0.533 0.193 0.285c0.269 0.411 0.857 0.975 1.213 1.163 1.021 0.539 2.423 0.463 3.113-0.157 0.257-0.217 0.419-0.54 0.419-0.9 0-0.021-0.001-0.042-0.002-0.062l0 0.003c0-0.371-0.047-0.533-0.24-0.813-0.248-0.355-0.756-0.653-2.199-1.28-1.651-0.711-2.361-1.152-3.012-1.853-0.392-0.445-0.694-0.981-0.871-1.57l-0.008-0.030c-0.121-0.452-0.152-1.585-0.056-2.041 0.34-1.596 1.544-2.707 3.281-3.037 0.564-0.107 1.875-0.067 2.428 0.071zM18.276 16.061l0.011 1.311h-4.167v11.835h-2.947v-11.835h-4.163v-1.285c0-0.712 0.015-1.307 0.035-1.32 0.016-0.021 2.551-0.032 5.623-0.027l5.593 0.016z"></path>
</symbol>
<symbol id="icon-netlify" viewBox="0 0 32 32">
<path fill="#00c7b7" style="fill: var(--color4, #00c7b7)" d="M22.579 11.359c0.157 0.080 0.291 0.183 0.403 0.306l0.001 0.001 3.132-1.393-2.923-2.895-0.655 3.939zM16.080 8.728c0.146 0.217 0.245 0.477 0.278 0.757l0.001 0.008 4.663 1.976c0.134-0.104 0.292-0.185 0.463-0.234l0.010-0.002 0.765-4.733-2.84-2.979-3.34 5.136zM31.991 16.049l-4.997-4.997-3.397 1.392 8.352 3.549c0 0 0.071 0.056 0.043 0.056zM31.155 16.857l-8.017-3.425c-0.221 0.292-0.55 0.492-0.926 0.542l-0.007 0.001-0.863 5.276c0.248 0.25 0.402 0.594 0.404 0.974v0l4.844 1.016 4.44-4.413v-0.083zM20.533 12.333l-4.357-1.853c-0.29 0.439-0.781 0.725-1.339 0.725-0.018 0-0.037-0-0.055-0.001l0.003 0h-0.265l-3.605 5.569 9.633-4.176v0.013c-0.003-0.033-0.005-0.072-0.005-0.111s0.002-0.078 0.006-0.116l-0 0.005c0.001-0.004 0.001-0.008 0.001-0.012 0-0.016-0.005-0.031-0.015-0.043l0 0zM25.823 22.077l-4.26-0.877c-0.159 0.202-0.366 0.359-0.604 0.455l-0.010 0.003-1.015 6.293 5.916-5.861c0 0-0.013 0.027-0.028 0.027zM19.864 21.645c-0.406-0.17-0.709-0.514-0.819-0.937l-0.002-0.010-7.933-1.629-0.112 0.181 7.197 10.413 0.431-0.432 1.225-7.56c0 0 0.041 0.029 0.013 0.015zM11.276 18.109l7.837 1.615c0.227-0.39 0.628-0.658 1.094-0.696l0.005-0 0.849-5.192-0.18-0.153-9.744 4.176c0.045 0.069 0.091 0.151 0.132 0.236l0.006 0.014zM7.991 19.417l-0.167-0.167-3.383 1.392 1.643 1.629 1.865-2.896zM10.217 19.947c-0.22 0.104-0.478 0.165-0.75 0.167h-0.001c-0.002 0-0.005 0-0.007 0-0.212 0-0.416-0.036-0.606-0.101l0.013 0.004-2.059 2.993 9.020 8.936 1.587-1.573zM8.951 16.425c0.063-0.006 0.136-0.010 0.209-0.010s0.147 0.003 0.219 0.010l-0.009-0.001c0.069-0.009 0.149-0.014 0.229-0.014s0.16 0.005 0.239 0.015l-0.009-0.001 3.647-5.667c-0.275-0.284-0.444-0.672-0.445-1.098v-0c-0.006-0.054-0.010-0.117-0.010-0.181s0.004-0.126 0.011-0.188l-0.001 0.008-4.427-2.047-3.563 3.467zM9.355 6.556l4.316 1.837c0.284-0.235 0.651-0.377 1.052-0.377 0.022 0 0.043 0 0.064 0.001l-0.003-0c0.19 0.002 0.371 0.032 0.542 0.088l-0.013-0.004 3.368-5.263-2.784-2.784-6.543 6.417c0 0-0.013 0.069 0 0.084zM7.741 17.441c0.092-0.17 0.198-0.316 0.321-0.446l-0.001 0.001-3.691-5.512-4.371 4.245zM7.392 18.375l-6.681-1.395 2.937 2.98 3.703-1.573z"></path>
</symbol>
<symbol id="icon-adobeillustrator" viewBox="0 0 32 32">
<path fill="#ff7c00" style="fill: var(--color5, #ff7c00)" d="M0 0.4v31.2h32v-31.2zM1.333 1.733h29.333v28.533h-29.333zM11.1 18.067l-1.056 3.997c-0.023 0.111-0.067 0.136-0.197 0.136h-1.957c-0.133 0-0.153-0.044-0.133-0.197l3.787-13.26c0.067-0.24 0.109-0.451 0.131-1.111 0-0.088 0.044-0.133 0.111-0.133h2.795c0.088 0 0.133 0.024 0.155 0.133l4.247 14.392c0.023 0.111 0 0.176-0.111 0.176h-2.2c-0.111 0-0.176-0.027-0.197-0.115l-1.1-4.020zM14.817 15.9c-0.373-1.475-1.253-4.704-1.584-6.267h-0.023c-0.285 1.56-0.989 4.2-1.54 6.267zM20.817 8.489c0-0.857 0.593-1.364 1.364-1.364 0.813 0 1.364 0.549 1.364 1.364 0 0.88-0.573 1.364-1.387 1.364-0.8 0-1.347-0.484-1.341-1.364zM20.967 11.521c0-0.107 0.044-0.147 0.155-0.147h2.093c0.117 0 0.16 0.044 0.16 0.155v10.527c0 0.111-0.021 0.155-0.153 0.155h-2.067c-0.133 0-0.177-0.067-0.177-0.173z"></path>
</symbol>
<symbol id="icon-adobephotoshop" viewBox="0 0 32 32">
<path fill="#00c8ff" style="fill: var(--color6, #00c8ff)" d="M0 0.4v31.2h32v-31.2zM1.333 1.733h29.333v28.533h-29.333zM7.733 7.707c0-0.089 0.187-0.155 0.299-0.155 0.859-0.044 2.117-0.067 3.437-0.067 3.696 0 5.133 2.027 5.133 4.621 0 3.387-2.456 4.84-5.469 4.84-0.507 0-0.68-0.023-1.033-0.023v5.123c0 0.111-0.044 0.155-0.153 0.155h-2.059c-0.111 0-0.153-0.040-0.153-0.151zM10.1 14.789c0.307 0.021 0.549 0.021 1.080 0.021 1.56 0 3.027-0.549 3.027-2.661 0-1.693-1.048-2.552-2.829-2.552-0.528 0-1.033 0.021-1.276 0.044zM21.576 13.205c-1.056 0-1.408 0.528-1.408 0.968 0 0.484 0.24 0.813 1.649 1.54 2.091 1.013 2.749 1.98 2.749 3.409 0 2.133-1.627 3.28-3.827 3.28-1.168 0-2.16-0.244-2.733-0.573-0.087-0.044-0.107-0.109-0.107-0.22v-1.956c0-0.133 0.064-0.177 0.152-0.112 0.832 0.551 1.803 0.792 2.683 0.792 1.056 0 1.496-0.44 1.496-1.035 0-0.484-0.307-0.903-1.649-1.607-1.893-0.907-2.685-1.827-2.685-3.369 0-1.716 1.341-3.147 3.673-3.147 1.147 0 1.952 0.176 2.392 0.373 0.109 0.067 0.133 0.176 0.133 0.264v1.827c0 0.111-0.067 0.177-0.2 0.133-0.592-0.352-1.467-0.573-2.319-0.568z"></path>
</symbol>
<symbol id="icon-github" viewBox="0 0 32 32">
<path d="M16 0.396c-8.84 0-16 7.164-16 16 0 7.071 4.584 13.067 10.94 15.18 0.8 0.151 1.093-0.344 1.093-0.769 0-0.38-0.013-1.387-0.020-2.72-4.451 0.965-5.389-2.147-5.389-2.147-0.728-1.847-1.78-2.34-1.78-2.34-1.449-0.992 0.112-0.972 0.112-0.972 1.607 0.112 2.451 1.648 2.451 1.648 1.427 2.447 3.745 1.74 4.66 1.331 0.144-1.035 0.556-1.74 1.013-2.14-3.553-0.4-7.288-1.776-7.288-7.907 0-1.747 0.62-3.173 1.647-4.293-0.18-0.404-0.72-2.031 0.14-4.235 0 0 1.34-0.429 4.4 1.64 1.28-0.356 2.64-0.532 4-0.54 1.36 0.008 2.72 0.184 4 0.54 3.040-2.069 4.38-1.64 4.38-1.64 0.86 2.204 0.32 3.831 0.16 4.235 1.020 1.12 1.64 2.547 1.64 4.293 0 6.147-3.74 7.5-7.3 7.893 0.56 0.48 1.080 1.461 1.080 2.96 0 2.141-0.020 3.861-0.020 4.381 0 0.42 0.28 0.92 1.1 0.76 6.401-2.099 10.981-8.099 10.981-15.159 0-8.836-7.164-16-16-16z"></path>
</symbol>
<symbol id="icon-laravel" viewBox="0 0 32 32">
<path fill="#ff2d20" style="fill: var(--color7, #ff2d20)" d="M31.525 7.24c0.012 0.043 0.019 0.087 0.019 0.132v6.867c0 0.18-0.097 0.347-0.252 0.435l-5.764 3.32v6.579c0 0.18-0.096 0.344-0.251 0.435l-12.036 6.927c-0.028 0.016-0.057 0.027-0.088 0.036-0.011 0.003-0.021 0.011-0.032 0.013-0.084 0.024-0.173 0.024-0.256 0-0.015-0.003-0.027-0.011-0.039-0.016-0.028-0.011-0.057-0.019-0.084-0.033l-12.031-6.927c-0.156-0.091-0.252-0.255-0.252-0.435v-20.607c0-0.044 0.007-0.088 0.019-0.131 0.004-0.016 0.013-0.028 0.019-0.043 0.008-0.027 0.019-0.053 0.031-0.077 0.005-0.017 0.020-0.029 0.031-0.044 0.016-0.021 0.028-0.041 0.044-0.060 0.016-0.013 0.033-0.024 0.049-0.036 0.019-0.016 0.036-0.032 0.055-0.045h0.001l6.017-3.463c0.153-0.089 0.345-0.089 0.5 0l6.019 3.463c0.020 0.013 0.036 0.028 0.055 0.044 0.016 0.012 0.033 0.024 0.049 0.036 0.017 0.019 0.028 0.039 0.044 0.060 0.011 0.015 0.027 0.028 0.033 0.044 0.015 0.025 0.023 0.051 0.032 0.077 0.004 0.015 0.015 0.028 0.017 0.043 0.013 0.041 0.019 0.085 0.019 0.131v12.869l5.013-2.885v-6.579c0-0.044 0.007-0.088 0.019-0.131 0.004-0.015 0.012-0.028 0.017-0.043 0.009-0.027 0.019-0.052 0.032-0.079 0.009-0.016 0.024-0.028 0.033-0.044 0.016-0.020 0.028-0.040 0.044-0.057 0.016-0.016 0.033-0.027 0.049-0.037 0.019-0.015 0.035-0.031 0.055-0.043h0.001l6.017-3.464c0.155-0.089 0.345-0.089 0.5 0l6.017 3.464c0.021 0.013 0.036 0.028 0.056 0.041 0.016 0.013 0.033 0.024 0.048 0.037 0.017 0.019 0.029 0.039 0.045 0.059 0.011 0.016 0.025 0.028 0.032 0.044 0.015 0.027 0.024 0.052 0.032 0.079 0.008 0.015 0.016 0.029 0.020 0.044zM30.539 13.949v-5.711l-5.013 2.885v5.711zM24.524 24.283v-5.716l-11.031 6.297v5.768zM1.46 4.832v19.451l11.031 6.349v-5.768l-5.768-3.264c-0.019-0.013-0.033-0.028-0.053-0.041-0.015-0.013-0.032-0.024-0.047-0.036l-0.001-0.003c-0.017-0.016-0.028-0.033-0.041-0.052-0.013-0.016-0.028-0.031-0.037-0.049h-0.003c-0.011-0.019-0.017-0.041-0.027-0.063-0.008-0.021-0.019-0.036-0.024-0.057-0.005-0.024-0.008-0.049-0.011-0.076-0.003-0.019-0.008-0.036-0.008-0.055v-13.449l-2.907-1.676zM6.975 1.080l-5.013 2.885 5.013 2.885 5.011-2.885zM9.583 19.087l2.909-1.675v-12.58l-5.016 2.887v12.58zM25.025 4.485l-5.013 2.885 5.013 2.884 5.012-2.885zM24.524 11.124l-5.015-2.885v5.711l5.015 2.885zM12.991 23.996l11.027-6.293-5.009-2.884-11.020 6.345z"></path>
</symbol>
<symbol id="icon-vue-dot-js" viewBox="0 0 32 32">
<path fill="#4fc08d" style="fill: var(--color8, #4fc08d)" d="M32 2.147h-13.253l-2.747 4.733-2.747-4.733h-13.253l16 27.707zM16 18.773l-9.12-15.8h5.907l3.213 5.573 3.213-5.573h5.907z"></path>
</symbol>
<symbol id="icon-postgresql" viewBox="0 0 32 32">
<path fill="#336791" style="fill: var(--color9, #336791)" d="M22.837 0c-1.312 0.010-2.575 0.206-3.769 0.562l0.096-0.024-0.084 0.027c-0.677-0.126-1.464-0.205-2.267-0.22l-0.013-0c-1.571-0.027-2.92 0.355-4.008 0.989-1.072-0.372-3.296-1.013-5.64-0.885-1.632 0.089-3.413 0.585-4.733 1.979-1.316 1.393-2.012 3.549-1.865 6.483 0.040 0.809 0.271 2.129 0.653 3.839s0.92 3.711 1.591 5.536c0.671 1.827 1.405 3.467 2.553 4.581 0.573 0.559 1.363 1.028 2.293 0.989 0.653-0.027 1.244-0.313 1.753-0.736 0.248 0.327 0.513 0.469 0.755 0.601 0.304 0.167 0.6 0.28 0.907 0.355 0.551 0.137 1.493 0.321 2.597 0.133 0.376-0.063 0.772-0.185 1.167-0.36 0.015 0.44 0.032 0.871 0.049 1.307 0.055 1.381 0.089 2.657 0.504 3.776 0.067 0.183 0.249 1.124 0.969 1.955 0.72 0.832 2.131 1.351 3.737 1.007 1.133-0.243 2.575-0.68 3.532-2.043 0.947-1.347 1.373-3.279 1.457-6.412 0.021-0.169 0.047-0.313 0.073-0.448l0.225 0.020h0.027c1.209 0.055 2.521-0.117 3.617-0.627 0.971-0.449 1.705-0.904 2.24-1.711 0.133-0.2 0.28-0.441 0.32-0.857s-0.199-1.067-0.595-1.367c-0.793-0.603-1.292-0.373-1.827-0.263-0.476 0.11-1.027 0.18-1.592 0.194l-0.010 0c1.541-2.596 2.647-5.353 3.277-7.793 0.373-1.44 0.583-2.768 0.6-3.929s-0.077-2.189-0.773-3.079c-2.175-2.779-5.232-3.547-7.597-3.573-0.073-0.001-0.147-0.003-0.22-0.005zM22.775 0.853c2.237-0.021 5.096 0.607 7.148 3.229 0.461 0.589 0.599 1.451 0.583 2.512-0.017 1.060-0.213 2.329-0.572 3.72-0.696 2.693-2.011 5.833-3.863 8.651 0.061 0.044 0.13 0.082 0.204 0.112l0.007 0.002c0.387 0.16 1.268 0.297 3.027-0.064 0.443-0.093 0.767-0.156 1.103 0.1 0.15 0.128 0.245 0.317 0.245 0.529 0 0.013-0 0.026-0.001 0.040l0-0.002c-0.019 0.17-0.081 0.323-0.175 0.451l0.002-0.003c-0.34 0.511-1.011 0.995-1.871 1.393-0.761 0.355-1.853 0.54-2.821 0.551-0.485 0.005-0.933-0.032-1.313-0.151l-0.024-0.009c-0.147 1.413-0.484 4.204-0.704 5.477-0.176 1.027-0.484 1.843-1.072 2.453-0.587 0.611-1.417 0.979-2.535 1.219-1.384 0.297-2.393-0.023-3.044-0.571-0.649-0.547-0.947-1.272-1.125-1.716-0.123-0.307-0.187-0.704-0.248-1.235s-0.107-1.18-0.137-1.912c-0.029-0.745-0.045-1.619-0.045-2.497 0-0.305 0.002-0.609 0.006-0.913l-0 0.046c-0.558 0.512-1.263 0.872-2.045 1.010l-0.024 0.004c-0.919 0.156-1.739 0.003-2.228-0.12-0.264-0.067-0.494-0.159-0.709-0.276l0.016 0.008c-0.227-0.121-0.443-0.259-0.587-0.529-0.057-0.103-0.091-0.227-0.091-0.358 0-0.053 0.006-0.105 0.016-0.155l-0.001 0.005c0.047-0.18 0.15-0.332 0.289-0.44l0.002-0.001c0.264-0.215 0.613-0.335 1.14-0.444 0.959-0.197 1.293-0.332 1.497-0.493 0.173-0.139 0.369-0.419 0.716-0.829-0.001-0.013-0.003-0.032-0.004-0.051l-0-0.004c-0.653-0.019-1.261-0.193-1.794-0.488l0.020 0.010c-0.2 0.211-1.221 1.291-2.467 2.789-0.524 0.627-1.103 0.987-1.713 1.012-0.611 0.027-1.163-0.281-1.632-0.736-0.937-0.911-1.685-2.477-2.337-4.248-0.651-1.771-1.18-3.743-1.556-5.423-0.377-1.68-0.6-3.035-0.632-3.688-0.14-2.776 0.509-4.647 1.623-5.827 1.115-1.18 2.643-1.627 4.132-1.712 2.673-0.153 5.212 0.779 5.725 0.979 0.989-0.672 2.264-1.091 3.856-1.064 0.801 0.012 1.572 0.117 2.31 0.305l-0.068-0.015 0.027-0.012c0.257-0.095 0.587-0.194 0.923-0.273l0.062-0.012c0.825-0.202 1.776-0.324 2.754-0.337l0.009-0zM22.977 1.747h-0.195c-0.811 0.012-1.594 0.104-2.349 0.27l0.077-0.014c1.661 0.736 2.916 1.869 3.8 3 0.585 0.739 1.091 1.583 1.481 2.487l0.028 0.073c0.147 0.352 0.245 0.649 0.301 0.88 0.028 0.116 0.047 0.213 0.053 0.315 0.003 0.051 0.005 0.103-0.016 0.192 0 0.004-0.007 0.013-0.008 0.017 0.040 1.168-0.249 1.96-0.284 3.075-0.027 0.808 0.18 1.757 0.231 2.793 0.048 0.973-0.069 2.043-0.701 3.092 0.053 0.064 0.101 0.128 0.152 0.192 1.672-2.633 2.877-5.547 3.52-8.031 0.344-1.337 0.527-2.549 0.543-3.509 0.013-0.96-0.165-1.656-0.393-1.947-1.789-2.288-4.211-2.871-6.24-2.885zM16.591 2.088c-1.576 0.004-2.707 0.48-3.564 1.193-0.884 0.737-1.477 1.747-1.867 2.78-0.463 1.227-0.621 2.413-0.684 3.219l0.017-0.011c0.476-0.267 1.101-0.533 1.771-0.688 0.669-0.153 1.391-0.201 2.044 0.052s1.193 0.849 1.389 1.753c0.939 4.343-0.292 5.957-0.745 7.176-0.144 0.351-0.295 0.801-0.42 1.261l-0.021 0.090c0.057-0.013 0.115-0.029 0.172-0.035 0.32-0.027 0.571 0.080 0.72 0.144 0.456 0.189 0.769 0.587 0.939 1.040 0.044 0.119 0.076 0.247 0.095 0.379 0.017 0.046 0.027 0.098 0.027 0.153 0 0.006-0 0.011-0 0.017l0-0.001c-0.022 0.666-0.034 1.45-0.034 2.236 0 0.966 0.019 1.928 0.056 2.885l-0.004-0.138c0.031 0.717 0.076 1.349 0.133 1.848 0.057 0.497 0.139 0.876 0.191 1.004 0.171 0.427 0.42 0.985 0.871 1.365 0.451 0.379 1.097 0.632 2.279 0.379 1.024-0.22 1.656-0.525 2.079-0.964 0.421-0.439 0.673-1.049 0.835-1.984 0.241-1.4 0.727-5.46 0.785-6.224-0.027-0.576 0.059-1.019 0.243-1.356 0.189-0.347 0.483-0.559 0.736-0.673 0.127-0.057 0.245-0.096 0.343-0.124-0.119-0.17-0.225-0.311-0.336-0.448l0.012 0.015c-0.35-0.422-0.648-0.905-0.873-1.427l-0.015-0.039c-0.136-0.279-0.25-0.49-0.371-0.697l0.028 0.052c-0.177-0.32-0.401-0.72-0.636-1.169-0.469-0.9-0.98-1.991-1.245-3.053-0.264-1.061-0.303-2.16 0.375-2.935 0.6-0.688 1.653-0.973 3.235-0.813-0.047-0.14-0.075-0.256-0.153-0.443-0.386-0.898-0.851-1.672-1.405-2.374l0.017 0.022c-1.34-1.713-3.509-3.412-6.861-3.467zM7.735 2.157c-0.169 0-0.339 0.005-0.507 0.015-1.347 0.077-2.62 0.468-3.531 1.433-0.912 0.965-1.512 2.548-1.381 5.168 0.025 0.496 0.241 1.885 0.612 3.536 0.369 1.651 0.893 3.593 1.523 5.309 0.631 1.716 1.395 3.209 2.12 3.916 0.365 0.353 0.683 0.496 0.971 0.484 0.289-0.013 0.637-0.18 1.063-0.691 0.836-1.006 1.625-1.895 2.44-2.759l-0.026 0.028c-0.986-0.86-1.606-2.118-1.606-3.521 0-0.24 0.018-0.475 0.053-0.705l-0.003 0.026c0.137-0.985 0.156-1.907 0.14-2.635-0.016-0.709-0.067-1.181-0.067-1.476-0-0.004-0-0.008-0-0.013s0-0.009 0-0.013v0.001-0.007l-0.001-0.008v-0.001c0-0.002 0-0.004 0-0.007 0-1.613 0.289-3.158 0.819-4.586l-0.030 0.091c0.373-0.992 0.929-2 1.763-2.816-0.819-0.269-2.272-0.68-3.845-0.757-0.15-0.008-0.327-0.013-0.505-0.013h-0.001zM24.265 9.2c-0.905 0.012-1.413 0.245-1.68 0.551-0.377 0.433-0.413 1.193-0.179 2.129 0.233 0.937 0.716 1.985 1.169 2.856 0.227 0.436 0.447 0.828 0.624 1.147 0.179 0.32 0.309 0.547 0.389 0.74 0.073 0.179 0.155 0.336 0.237 0.483 0.351-0.74 0.413-1.467 0.377-2.224-0.047-0.937-0.264-1.896-0.232-2.867 0.036-1.135 0.26-1.873 0.28-2.751-0.296-0.040-0.639-0.064-0.986-0.064h-0zM13.287 9.353c-0.293 0.003-0.576 0.039-0.847 0.104l0.026-0.005c-0.583 0.144-1.095 0.349-1.569 0.615l0.031-0.016c-0.177 0.096-0.33 0.197-0.472 0.309l0.007-0.005-0.029 0.027c0.008 0.195 0.047 0.667 0.063 1.361 0.016 0.76-0.003 1.729-0.149 2.779-0.319 2.28 1.336 4.168 3.28 4.171 0.113-0.468 0.3-0.943 0.487-1.443 0.541-1.459 1.607-2.523 0.709-6.675-0.147-0.68-0.437-0.955-0.837-1.109-0.195-0.071-0.42-0.112-0.655-0.112-0.015 0-0.030 0-0.046 0.001l0.002-0zM23.843 9.625h0.067c0.088 0.003 0.169 0.012 0.24 0.029 0.072 0.016 0.133 0.040 0.184 0.073s0.088 0.084 0.1 0.145l0 0.001-0.001 0.011c0 0.004 0 0.009 0 0.013 0 0.062-0.017 0.119-0.048 0.168l0.001-0.001c-0.041 0.076-0.090 0.142-0.147 0.2l0-0c-0.132 0.145-0.309 0.246-0.509 0.282l-0.005 0.001c-0.028 0.004-0.061 0.006-0.094 0.006-0.169 0-0.326-0.054-0.455-0.145l0.002 0.002c-0.066-0.045-0.123-0.097-0.172-0.156l-0.001-0.001c-0.042-0.046-0.071-0.103-0.084-0.167l-0-0.002c-0.001-0.006-0.001-0.013-0.001-0.020 0-0.058 0.022-0.11 0.057-0.15l-0 0c0.043-0.049 0.095-0.089 0.153-0.119l0.003-0.001c0.128-0.072 0.301-0.125 0.497-0.155 0.073-0.011 0.145-0.016 0.213-0.013zM13.416 9.849c0.071 0 0.145 0.007 0.221 0.017 0.204 0.028 0.385 0.083 0.524 0.163 0.069 0.037 0.128 0.084 0.177 0.141l0.001 0.001c0.046 0.052 0.074 0.121 0.074 0.196 0 0.011-0.001 0.022-0.002 0.032l0-0.001c-0.014 0.080-0.049 0.15-0.1 0.206l0-0c-0.055 0.067-0.117 0.124-0.188 0.171l-0.003 0.002c-0.137 0.098-0.308 0.157-0.493 0.157-0.037 0-0.073-0.002-0.108-0.007l0.004 0c-0.223-0.038-0.417-0.147-0.559-0.303l-0.001-0.001c-0.061-0.063-0.113-0.135-0.155-0.214l-0.002-0.005c-0.036-0.056-0.057-0.124-0.057-0.198 0-0.014 0.001-0.027 0.002-0.040l-0 0.002c0.020-0.144 0.139-0.219 0.255-0.26 0.109-0.038 0.235-0.060 0.366-0.060 0.016 0 0.031 0 0.047 0.001l-0.002-0zM25.496 19.64l-0.004 0.001c-0.196 0.071-0.357 0.1-0.493 0.16-0.139 0.055-0.25 0.155-0.317 0.282l-0.002 0.003c-0.084 0.153-0.156 0.425-0.135 0.888 0.057 0.039 0.122 0.071 0.193 0.092l0.005 0.001c0.228 0.069 0.611 0.115 1.037 0.108 0.851-0.009 1.897-0.208 2.453-0.467 0.481-0.226 0.895-0.5 1.263-0.825l-0.006 0.005h-0.001c-1.857 0.384-2.907 0.281-3.551 0.016-0.169-0.071-0.315-0.16-0.446-0.268l0.003 0.002zM14.788 19.765h-0.028c-0.071 0.007-0.173 0.031-0.372 0.251-0.464 0.52-0.627 0.847-1.009 1.152-0.383 0.304-0.88 0.467-1.873 0.671-0.315 0.064-0.495 0.135-0.615 0.192 0.039 0.032 0.035 0.040 0.093 0.071 0.145 0.080 0.332 0.151 0.483 0.189 0.427 0.107 1.128 0.231 1.86 0.107 0.732-0.125 1.493-0.476 2.143-1.387 0.112-0.157 0.124-0.389 0.032-0.639-0.093-0.249-0.297-0.464-0.441-0.524-0.079-0.040-0.171-0.069-0.268-0.082l-0.005-0z"></path>
</symbol>
<symbol id="icon-sass" viewBox="0 0 32 32">
<path fill="#c69" style="fill: var(--color10, #c69)" d="M16 0c8.836 0 16 7.164 16 16s-7.164 16-16 16-16-7.164-16-16 7.164-16 16-16zM12.82 21.331c0.233 0.86 0.208 1.664-0.032 2.389l-0.087 0.24c-0.032 0.081-0.069 0.16-0.104 0.235-0.187 0.387-0.435 0.747-0.74 1.080-0.931 1.012-2.229 1.396-2.787 1.073-0.6-0.349-0.301-1.78 0.779-2.92 1.161-1.224 2.827-2.012 2.827-2.012v-0.004zM26.035 6.849c-0.723-2.844-5.436-3.779-9.896-2.193-2.652 0.943-5.525 2.424-7.591 4.356-2.457 2.295-2.848 4.295-2.687 5.131 0.569 2.948 4.609 4.876 6.271 6.307v0.008c-0.489 0.24-4.075 2.039-4.915 3.9-0.9 1.96 0.14 3.361 0.82 3.54 2.1 0.581 4.26-0.48 5.42-2.199 1.12-1.681 1.021-3.841 0.539-4.901 0.661-0.18 1.44-0.26 2.44-0.139 2.801 0.32 3.361 2.080 3.24 2.8-0.12 0.719-0.697 1.139-0.899 1.259-0.2 0.121-0.26 0.16-0.241 0.241 0.020 0.12 0.121 0.12 0.28 0.1 0.22-0.040 1.461-0.6 1.521-1.961 0.060-1.72-1.581-3.639-4.5-3.6-1.2 0.021-1.961 0.121-2.5 0.341-0.040-0.060-0.081-0.1-0.14-0.14-1.8-1.94-5.14-3.3-5-5.88 0.040-0.94 0.38-3.419 6.4-6.419 4.94-2.461 8.881-1.78 9.561-0.28 0.977 2.139-2.101 6.12-7.241 6.699-1.96 0.22-2.98-0.539-3.241-0.82-0.279-0.3-0.319-0.32-0.419-0.259-0.16 0.080-0.060 0.34 0 0.5 0.16 0.4 0.78 1.1 1.861 1.46 0.939 0.3 3.24 0.479 6-0.6 3.099-1.199 5.519-4.54 4.819-7.34z"></path>
</symbol>
<symbol id="icon-mysql" viewBox="0 0 32 32">
<path fill="#4479a1" style="fill: var(--color11, #4479a1)" d="M21.873 7.568c-0.153 0-0.257 0.019-0.365 0.044v0.017h0.019c0.072 0.139 0.195 0.24 0.285 0.364 0.072 0.143 0.133 0.285 0.205 0.427l0.019-0.020c0.125-0.088 0.187-0.229 0.187-0.444-0.053-0.063-0.061-0.125-0.107-0.187-0.053-0.089-0.168-0.133-0.243-0.201zM7.693 25.16h-1.236c-0.040-2.083-0.164-4.040-0.36-5.88h-0.011l-1.88 5.88h-0.94l-1.867-5.88h-0.013c-0.137 1.764-0.224 3.724-0.26 5.88h-1.127c0.073-2.621 0.256-5.080 0.547-7.373h1.533l1.78 5.419h0.011l1.796-5.419h1.46c0.323 2.687 0.512 5.147 0.567 7.373zM13.049 19.72c-0.504 2.727-1.168 4.711-1.989 5.947-0.643 0.955-1.347 1.431-2.111 1.431-0.204 0-0.453-0.061-0.755-0.184v-0.659c0.147 0.023 0.32 0.035 0.515 0.035 0.357 0 0.644-0.1 0.863-0.296 0.263-0.24 0.393-0.509 0.393-0.807 0-0.207-0.103-0.627-0.307-1.259l-1.352-4.208h1.213l0.969 3.147c0.219 0.715 0.311 1.213 0.273 1.497 0.533-1.419 0.904-2.969 1.113-4.644zM29.483 25.16h-3.507v-7.373h1.18v6.467h2.327zM25.056 25.34l-1.355-0.667c0.12-0.101 0.236-0.211 0.34-0.333 0.577-0.675 0.864-1.677 0.864-3.004 0-2.44-0.957-3.661-2.873-3.661-0.939 0-1.672 0.309-2.2 0.929-0.573 0.677-0.861 1.675-0.861 2.993 0 1.296 0.253 2.248 0.765 2.853 0.467 0.547 1.169 0.82 2.111 0.82 0.352 0 0.675-0.044 0.967-0.131l1.767 1.029zM20.667 23.684c-0.3-0.48-0.449-1.253-0.449-2.315 0-1.857 0.565-2.787 1.693-2.787 0.591 0 1.027 0.223 1.303 0.667 0.299 0.483 0.448 1.248 0.448 2.297 0 1.872-0.565 2.811-1.693 2.811-0.593 0-1.027-0.223-1.301-0.673zM18.456 23.117c0 0.627-0.229 1.141-0.688 1.541s-1.071 0.6-1.845 0.6c-0.724 0-1.419-0.229-2.097-0.687l0.316-0.635c0.584 0.293 1.111 0.437 1.587 0.437 0.443 0 0.791-0.097 1.044-0.293 0.251-0.196 0.4-0.472 0.4-0.82 0-0.44-0.307-0.813-0.864-1.127-0.517-0.284-1.551-0.876-1.551-0.876-0.563-0.409-0.843-0.848-0.843-1.569 0-0.6 0.209-1.080 0.627-1.447 0.42-0.371 0.96-0.553 1.627-0.553 0.683 0 1.307 0.181 1.867 0.547l-0.284 0.635c-0.48-0.203-0.953-0.307-1.419-0.307-0.377 0-0.669 0.091-0.872 0.275-0.204 0.181-0.331 0.413-0.331 0.699 0 0.437 0.312 0.813 0.888 1.133 0.524 0.287 1.583 0.893 1.583 0.893 0.577 0.407 0.864 0.84 0.856 1.553zM30.965 15.315c-0.713-0.019-1.267 0.053-1.729 0.251-0.133 0.053-0.347 0.053-0.365 0.223 0.073 0.071 0.084 0.187 0.147 0.285 0.107 0.179 0.291 0.417 0.461 0.543 0.187 0.147 0.373 0.288 0.569 0.413 0.347 0.213 0.74 0.34 1.080 0.555 0.193 0.125 0.391 0.284 0.587 0.417 0.097 0.067 0.16 0.187 0.285 0.229v-0.027c-0.061-0.080-0.080-0.196-0.14-0.285-0.089-0.089-0.179-0.169-0.267-0.257-0.259-0.347-0.58-0.649-0.927-0.9-0.285-0.195-0.909-0.467-1.027-0.793l-0.017-0.019c0.195-0.017 0.427-0.088 0.613-0.141 0.303-0.080 0.58-0.063 0.893-0.141 0.141-0.036 0.284-0.080 0.427-0.125v-0.080c-0.16-0.16-0.28-0.377-0.445-0.527-0.453-0.393-0.956-0.776-1.472-1.097-0.28-0.179-0.635-0.293-0.929-0.445-0.107-0.053-0.285-0.080-0.347-0.169-0.16-0.195-0.253-0.453-0.367-0.685-0.256-0.491-0.507-1.033-0.729-1.551-0.16-0.349-0.257-0.697-0.453-1.017-0.92-1.516-1.916-2.435-3.448-3.333-0.329-0.187-0.724-0.267-1.141-0.365-0.223-0.011-0.445-0.027-0.667-0.036-0.147-0.063-0.288-0.232-0.413-0.313-0.507-0.32-1.819-1.013-2.192-0.096-0.24 0.579 0.356 1.149 0.563 1.443 0.153 0.204 0.347 0.437 0.453 0.667 0.063 0.155 0.080 0.313 0.143 0.475 0.141 0.392 0.276 0.829 0.463 1.196 0.097 0.187 0.204 0.383 0.329 0.551 0.072 0.097 0.195 0.143 0.223 0.303-0.125 0.181-0.133 0.445-0.205 0.667-0.32 1.009-0.195 2.257 0.259 3 0.143 0.221 0.483 0.712 0.937 0.524 0.4-0.16 0.312-0.667 0.427-1.113 0.027-0.107 0.009-0.177 0.064-0.249v0.020c0.125 0.251 0.251 0.489 0.365 0.74 0.275 0.437 0.755 0.891 1.156 1.193 0.213 0.16 0.383 0.437 0.649 0.536v-0.027h-0.020c-0.057-0.077-0.133-0.115-0.205-0.177-0.16-0.16-0.34-0.356-0.467-0.533-0.373-0.503-0.703-1.053-0.996-1.624-0.147-0.28-0.269-0.581-0.387-0.857-0.053-0.107-0.053-0.267-0.143-0.32-0.133 0.195-0.329 0.364-0.427 0.604-0.169 0.384-0.187 0.856-0.251 1.347-0.036 0.009-0.019 0-0.036 0.019-0.285-0.069-0.383-0.365-0.489-0.613-0.267-0.633-0.311-1.651-0.080-2.38 0.063-0.187 0.329-0.776 0.223-0.955-0.056-0.169-0.232-0.267-0.329-0.404-0.116-0.165-0.24-0.38-0.32-0.569-0.213-0.499-0.32-1.051-0.552-1.549-0.107-0.231-0.293-0.472-0.445-0.684-0.169-0.24-0.356-0.409-0.491-0.693-0.044-0.097-0.107-0.259-0.036-0.365 0.019-0.072 0.056-0.1 0.125-0.12 0.117-0.096 0.447 0.029 0.563 0.083 0.329 0.133 0.607 0.259 0.883 0.445 0.125 0.088 0.26 0.257 0.42 0.301h0.187c0.285 0.063 0.607 0.019 0.873 0.097 0.473 0.152 0.9 0.373 1.283 0.613 1.168 0.741 2.128 1.793 2.78 3.048 0.107 0.205 0.153 0.393 0.251 0.607 0.187 0.44 0.417 0.884 0.607 1.309 0.187 0.42 0.367 0.848 0.635 1.196 0.133 0.187 0.669 0.284 0.909 0.381 0.177 0.080 0.453 0.153 0.613 0.251 0.307 0.187 0.605 0.4 0.893 0.605 0.147 0.101 0.591 0.324 0.617 0.504z"></path>
</symbol>
<symbol id="icon-python" viewBox="0 0 32 32">
<path fill="#3776ab" style="fill: var(--color12, #3776ab)" d="M19.080 0.24l1.2 0.267 0.973 0.347 0.787 0.4 0.6 0.427 0.453 0.453 0.333 0.453 0.213 0.44 0.133 0.4 0.053 0.347 0.027 0.267-0.013 0.173v7.12l-0.067 0.84-0.173 0.733-0.28 0.613-0.347 0.507-0.4 0.413-0.44 0.333-0.467 0.253-0.467 0.187-0.44 0.133-0.4 0.093-0.347 0.053-0.28 0.027h-7.96l-0.92 0.067-0.787 0.187-0.667 0.293-0.547 0.36-0.44 0.427-0.36 0.467-0.267 0.48-0.2 0.493-0.133 0.467-0.093 0.427-0.053 0.36-0.027 0.28v4.080h-2.973l-0.28-0.040-0.373-0.093-0.427-0.16-0.467-0.24-0.48-0.347-0.48-0.48-0.467-0.613-0.427-0.787-0.373-0.973-0.28-1.173-0.187-1.4-0.067-1.64 0.080-1.627 0.213-1.387 0.32-1.16 0.427-0.947 0.48-0.76 0.533-0.587 0.56-0.44 0.56-0.32 0.533-0.213 0.48-0.133 0.427-0.067 0.32-0.013h0.213l0.080 0.013h10.88v-1.107h-7.787l-0.013-3.667-0.027-0.493 0.067-0.453 0.147-0.413 0.227-0.373 0.333-0.347 0.413-0.307 0.507-0.267 0.587-0.24 0.68-0.2 0.773-0.16 0.853-0.133 0.947-0.080 1.027-0.053 1.12-0.027 1.693 0.067zM10.68 2.88l-0.307 0.44-0.107 0.547 0.107 0.547 0.307 0.453 0.44 0.293 0.547 0.12 0.547-0.12 0.44-0.293 0.307-0.453 0.107-0.547-0.107-0.547-0.307-0.44-0.44-0.293-0.547-0.12-0.547 0.12zM28.133 8.147l0.373 0.080 0.427 0.16 0.467 0.24 0.48 0.36 0.48 0.467 0.467 0.627 0.427 0.787 0.373 0.973 0.28 1.173 0.187 1.387 0.067 1.64-0.080 1.64-0.213 1.387-0.32 1.147-0.427 0.947-0.48 0.76-0.533 0.6-0.56 0.44-0.56 0.32-0.533 0.213-0.48 0.12-0.427 0.067-0.32 0.027-0.213-0.013h-10.96v1.093h7.787l0.013 3.68 0.027 0.48-0.067 0.453-0.147 0.413-0.227 0.387-0.333 0.333-0.413 0.32-0.507 0.267-0.587 0.227-0.68 0.2-0.773 0.173-0.853 0.12-0.947 0.093-1.027 0.053-1.12 0.013-1.693-0.053-1.427-0.187-1.2-0.267-0.973-0.333-0.787-0.4-0.6-0.44-0.453-0.453-0.333-0.453-0.213-0.44-0.133-0.4-0.053-0.333-0.027-0.267 0.013-0.173v-7.12l0.067-0.853 0.173-0.72 0.28-0.613 0.347-0.507 0.4-0.427 0.44-0.32 0.467-0.267 0.467-0.187 0.44-0.133 0.4-0.080 0.347-0.053 0.28-0.027 0.173-0.013h7.787l0.92-0.067 0.787-0.187 0.667-0.28 0.547-0.373 0.44-0.427 0.36-0.467 0.267-0.48 0.2-0.48 0.133-0.467 0.093-0.427 0.053-0.373 0.027-0.28v-4.080h2.787l0.187 0.013zM19.507 27.147l-0.307 0.44-0.107 0.547 0.107 0.547 0.307 0.44 0.44 0.307 0.547 0.107 0.547-0.107 0.44-0.307 0.307-0.44 0.107-0.547-0.107-0.547-0.307-0.44-0.44-0.307-0.547-0.107-0.547 0.107z"></path>
</symbol>
<symbol id="icon-php" viewBox="0 0 32 32">
<path fill="#777bb4" style="fill: var(--color13, #777bb4)" d="M9.347 13.609h-1.259l-0.687 3.531h1.117c0.741 0 1.293-0.14 1.656-0.419 0.363-0.28 0.607-0.745 0.733-1.399 0.123-0.627 0.067-1.069-0.165-1.327-0.233-0.257-0.697-0.387-1.396-0.387zM16 7.584c-8.836 0-16 3.768-16 8.416s7.164 8.417 16 8.417 16-3.769 16-8.417-7.164-8.416-16-8.416zM11.653 17.519c-0.348 0.333-0.767 0.584-1.223 0.735-0.448 0.144-1.020 0.219-1.713 0.219h-1.575l-0.436 2.241h-1.837l1.64-8.435h3.533c1.063 0 1.837 0.279 2.325 0.837 0.488 0.557 0.635 1.336 0.44 2.336-0.082 0.425-0.223 0.803-0.416 1.148l0.010-0.019c-0.191 0.34-0.44 0.653-0.748 0.937zM17.019 18.472l0.724-3.732c0.084-0.424 0.052-0.715-0.091-0.868-0.143-0.155-0.448-0.232-0.916-0.232h-1.456l-0.939 4.833h-1.824l1.64-8.436h1.823l-0.436 2.243h1.624c1.023 0 1.727 0.179 2.115 0.535s0.504 0.933 0.351 1.732l-0.763 3.925zM27.148 15.452c-0.080 0.425-0.221 0.803-0.416 1.148l0.010-0.018c-0.191 0.34-0.44 0.653-0.748 0.937-0.338 0.323-0.746 0.574-1.2 0.728l-0.023 0.007c-0.448 0.144-1.020 0.219-1.715 0.219h-1.573l-0.436 2.243h-1.837l1.64-8.435h3.532c1.063 0 1.837 0.279 2.325 0.837 0.488 0.556 0.636 1.335 0.441 2.335zM23.688 13.609h-1.257l-0.688 3.531h1.117c0.743 0 1.295-0.14 1.656-0.419 0.363-0.28 0.607-0.745 0.735-1.399 0.123-0.627 0.065-1.069-0.167-1.327s-0.699-0.387-1.396-0.387z"></path>
</symbol>
<symbol id="icon-javascript" viewBox="0 0 32 32">
<path fill="#f7df1e" style="fill: var(--color14, #f7df1e)" d="M0 0h32v32h-32zM29.379 24.368c-0.233-1.46-1.184-2.687-4.004-3.831-0.981-0.46-2.072-0.78-2.396-1.52-0.121-0.44-0.14-0.68-0.061-0.94 0.2-0.861 1.22-1.12 2.020-0.88 0.52 0.16 1 0.56 1.301 1.2 1.379-0.901 1.379-0.901 2.34-1.5-0.36-0.56-0.539-0.801-0.781-1.040-0.84-0.94-1.959-1.42-3.779-1.379l-0.94 0.119c-0.901 0.22-1.76 0.7-2.28 1.34-1.52 1.721-1.081 4.721 0.759 5.961 1.82 1.36 4.481 1.659 4.821 2.94 0.32 1.56-1.16 2.060-2.621 1.88-1.081-0.24-1.68-0.781-2.34-1.781l-2.44 1.401c0.28 0.64 0.6 0.919 1.080 1.479 2.32 2.341 8.12 2.221 9.161-1.339 0.039-0.12 0.32-0.94 0.099-2.2zM17.401 14.708h-2.997c0 2.584-0.012 5.152-0.012 7.74 0 1.643 0.084 3.151-0.184 3.615-0.44 0.919-1.573 0.801-2.088 0.64-0.528-0.261-0.796-0.621-1.107-1.14-0.084-0.14-0.147-0.261-0.169-0.261l-2.433 1.5c0.407 0.84 1 1.563 1.765 2.023 1.14 0.68 2.672 0.9 4.276 0.54 1.044-0.301 1.944-0.921 2.415-1.881 0.68-1.24 0.536-2.76 0.529-4.461 0.016-2.739 0-5.479 0-8.239z"></path>
</symbol>
<symbol id="icon-html5" viewBox="0 0 32 32">
<path fill="#e34f26" style="fill: var(--color15, #e34f26)" d="M2 0h28l-2.547 28.751-11.484 3.249-11.419-3.251zM11.375 13l-0.309-3.624 13.412 0.004 0.307-3.496-17.568-0.004 0.931 10.68h12.168l-0.435 4.568-3.88 1.072-3.94-1.080-0.251-2.813h-3.479l0.44 5.561 7.229 1.933 7.172-1.924 0.992-10.876z"></path>
</symbol>
<symbol id="icon-tailwindcss" viewBox="0 0 32 32">
<path fill="#38b2ac" style="fill: var(--color16, #38b2ac)" d="M16.001 6.4c-4.267 0-6.933 2.133-8 6.4 1.6-2.133 3.467-2.933 5.6-2.4 1.217 0.304 2.087 1.187 3.051 2.165 1.569 1.592 3.384 3.435 7.349 3.435 4.267 0 6.933-2.133 8-6.4-1.6 2.133-3.467 2.933-5.6 2.4-1.217-0.304-2.087-1.187-3.051-2.165-1.568-1.592-3.383-3.435-7.349-3.435zM8.001 16c-4.267 0-6.933 2.133-8 6.4 1.6-2.133 3.467-2.933 5.6-2.4 1.217 0.304 2.087 1.187 3.051 2.165 1.569 1.592 3.384 3.435 7.349 3.435 4.267 0 6.933-2.133 8-6.4-1.6 2.133-3.467 2.933-5.6 2.4-1.217-0.304-2.087-1.187-3.051-2.165-1.568-1.592-3.383-3.435-7.349-3.435z"></path>
</symbol>
<symbol id="icon-css3" viewBox="0 0 32 32">
<path fill="#1572b6" style="fill: var(--color17, #1572b6)" d="M2 0h28l-2.547 28.751-11.484 3.249-11.42-3.251zM24.787 5.884l-17.573-0.004 0.284 3.496 13.5 0.003-0.34 3.621h-8.853l0.32 3.431h8.243l-0.488 4.697-3.88 1.072-3.941-1.080-0.251-2.813h-3.48l0.387 5.14 7.287 2.271 7.164-2.040z"></path>
</symbol>
<symbol id="icon-sun" viewBox="0 0 32 32">
<path d="M8.031 16.5c0 4.143 3.358 7.5 7.5 7.5s7.5-3.357 7.5-7.5-3.357-7.5-7.5-7.5c-4.142 0-7.5 3.357-7.5 7.5zM15.531 3.75l-2.109 4.219h4.219l-2.11-4.219zM24.543 7.457l-4.475 1.491 2.982 2.983 1.493-4.474zM10.994 8.948l-4.474-1.491 1.491 4.475 2.983-2.984zM6.969 14.359l-4.219 2.11 4.219 2.109v-4.219zM24.031 18.641l4.219-2.109-4.219-2.109v4.218zM15.531 29.25l2.109-4.219h-4.219l2.11 4.219zM20.068 24.052l4.475 1.491-1.492-4.475-2.983 2.984zM6.52 25.543l4.475-1.491-2.983-2.983-1.492 4.474z"></path>
</symbol>
<symbol id="icon-moon" viewBox="0 0 32 32">
<path d="M10.895 7.574c0 7.55 5.179 13.67 11.567 13.67 1.588 0 3.101-0.38 4.479-1.063-1.695 4.46-5.996 7.636-11.051 7.636-6.533 0-11.83-5.297-11.83-11.83 0-4.82 2.888-8.959 7.023-10.803-0.116 0.778-0.188 1.573-0.188 2.39z"></path>
</symbol>
<symbol id="icon-archive" viewBox="0 0 20 20">
<path d="M3.333 7.5h13.333v9.167h-13.333zM0.833 1.667c-0.46 0-0.833 0.373-0.833 0.833v4.167c0 0.46 0.373 0.833 0.833 0.833h0.833v10c0 0.46 0.373 0.833 0.833 0.833h15c0.46 0 0.833-0.373 0.833-0.833v-10h0.833c0.46 0 0.833-0.373 0.833-0.833v-4.167c0-0.46-0.373-0.833-0.833-0.833zM1.667 3.333h16.667v2.5h-16.667zM8.333 10.833h3.333c0.46 0 0.833-0.373 0.833-0.833s-0.373-0.833-0.833-0.833h-3.333c-0.46 0-0.833 0.373-0.833 0.833s0.373 0.833 0.833 0.833z"></path>
</symbol>
<symbol id="icon-chevron-down" viewBox="0 0 20 20">
<path d="M4.411 8.089l5 5c0.326 0.326 0.853 0.326 1.178 0l5-5c0.326-0.326 0.326-0.853 0-1.178s-0.853-0.326-1.178 0l-4.411 4.411-4.411-4.411c-0.326-0.326-0.853-0.326-1.178 0s-0.326 0.853 0 1.178z"></path>
</symbol>
<symbol id="icon-credit-card" viewBox="0 0 20 20">
<path d="M2.5 2.5c-0.69 0-1.317 0.281-1.767 0.732s-0.733 1.077-0.733 1.768v10c0 0.69 0.281 1.317 0.733 1.767s1.077 0.733 1.767 0.733h15c0.69 0 1.317-0.281 1.767-0.733s0.733-1.077 0.733-1.767v-10c0-0.69-0.281-1.317-0.733-1.767s-1.078-0.732-1.767-0.732zM18.333 7.5h-16.667v-2.5c0-0.23 0.093-0.438 0.244-0.589s0.359-0.244 0.589-0.244h15c0.23 0 0.438 0.092 0.589 0.244s0.244 0.359 0.244 0.589zM1.667 9.167h16.667v5.833c0 0.23-0.093 0.438-0.244 0.589s-0.359 0.244-0.589 0.244h-15c-0.23 0-0.438-0.093-0.589-0.244s-0.244-0.359-0.244-0.589z"></path>
</symbol>
<symbol id="icon-delete" viewBox="0 0 20 20">
<path d="M17.5 4.167c0.23 0 0.438 0.093 0.589 0.244s0.244 0.359 0.244 0.589v10c0 0.23-0.093 0.438-0.244 0.589s-0.359 0.244-0.589 0.244h-10.455l-5.104-5.833 5.104-5.833zM17.5 2.5h-10.833c-0.25 0-0.473 0.11-0.628 0.284l-5.833 6.667c-0.277 0.317-0.272 0.785 0 1.098l5.833 6.667c0.165 0.188 0.395 0.284 0.628 0.285h10.833c0.69 0 1.317-0.281 1.767-0.733s0.733-1.077 0.733-1.767v-10c0-0.69-0.281-1.317-0.733-1.768s-1.078-0.732-1.767-0.732zM9.411 8.089l1.911 1.911-1.911 1.911c-0.326 0.326-0.326 0.853 0 1.178s0.853 0.326 1.178 0l1.911-1.911 1.911 1.911c0.326 0.326 0.853 0.326 1.178 0s0.326-0.853 0-1.178l-1.911-1.911 1.911-1.911c0.326-0.326 0.326-0.853 0-1.178s-0.853-0.326-1.178 0l-1.911 1.911-1.911-1.911c-0.326-0.326-0.853-0.326-1.178 0s-0.326 0.853 0 1.178z"></path>
</symbol>
<symbol id="icon-facebook" viewBox="0 0 20 20">
<path d="M14.167 2.5v1.667h-1.667c-0.46 0-0.877 0.188-1.178 0.488s-0.488 0.718-0.488 1.178v2.5c0 0.46 0.373 0.833 0.833 0.833h2.266l-0.417 1.667h-1.849c-0.46 0-0.833 0.373-0.833 0.833v5.833h-1.667v-5.833c0-0.46-0.373-0.833-0.833-0.833h-1.667v-1.667h1.667c0.46 0 0.833-0.373 0.833-0.833v-2.5c0-0.921 0.373-1.752 0.977-2.357s1.436-0.977 2.357-0.977zM15 0.833h-2.5c-1.381 0-2.632 0.561-3.536 1.464s-1.464 2.155-1.464 3.536v1.667h-1.667c-0.46 0-0.833 0.373-0.833 0.833v3.333c0 0.46 0.373 0.833 0.833 0.833h1.667v5.833c0 0.46 0.373 0.833 0.833 0.833h3.333c0.46 0 0.833-0.373 0.833-0.833v-5.833h1.667c0.388 0 0.715-0.266 0.808-0.631l0.833-3.333c0.112-0.447-0.16-0.899-0.607-1.011-0.069-0.018-0.139-0.026-0.202-0.025h-2.5v-1.667h2.5c0.46 0 0.833-0.373 0.833-0.833v-3.333c0-0.46-0.373-0.833-0.833-0.833z"></path>
</symbol>
<symbol id="icon-file-text" viewBox="0 0 20 20">
<path d="M14.655 5.833h-2.155v-2.155zM17.256 6.078l-5-5c-0.077-0.077-0.168-0.138-0.27-0.181s-0.211-0.063-0.319-0.063h-6.667c-0.69 0-1.317 0.281-1.767 0.733s-0.732 1.077-0.732 1.767v13.333c0 0.69 0.281 1.317 0.732 1.767s1.077 0.733 1.767 0.733h10c0.69 0 1.317-0.281 1.767-0.733s0.733-1.078 0.733-1.767v-10c0-0.23-0.093-0.438-0.244-0.589zM10.833 2.5v4.167c0 0.46 0.373 0.833 0.833 0.833h4.167v9.167c0 0.23-0.092 0.437-0.244 0.589s-0.359 0.244-0.589 0.244h-10c-0.23 0-0.438-0.092-0.589-0.244s-0.244-0.359-0.244-0.589v-13.333c0-0.23 0.093-0.438 0.244-0.589s0.359-0.244 0.589-0.244zM13.333 10h-6.667c-0.46 0-0.833 0.373-0.833 0.833s0.373 0.833 0.833 0.833h6.667c0.46 0 0.833-0.373 0.833-0.833s-0.373-0.833-0.833-0.833zM13.333 13.333h-6.667c-0.46 0-0.833 0.373-0.833 0.833s0.373 0.833 0.833 0.833h6.667c0.46 0 0.833-0.373 0.833-0.833s-0.373-0.833-0.833-0.833zM8.333 6.667h-1.667c-0.46 0-0.833 0.373-0.833 0.833s0.373 0.833 0.833 0.833h1.667c0.46 0 0.833-0.373 0.833-0.833s-0.373-0.833-0.833-0.833z"></path>
</symbol>
<symbol id="icon-github1" viewBox="0 0 20 20">
<path d="M7.261 15.035c-1.057 0.317-1.717 0.279-2.152 0.142-0.192-0.061-0.359-0.147-0.512-0.252-0.342-0.237-0.606-0.562-0.932-0.977-0.297-0.376-0.708-0.922-1.292-1.23-0.154-0.082-0.322-0.148-0.503-0.193-0.447-0.112-0.899 0.16-1.011 0.607s0.16 0.899 0.607 1.011c0.062 0.019 0.129 0.050 0.129 0.050 0.21 0.111 0.406 0.337 0.762 0.788 0.305 0.387 0.713 0.915 1.294 1.316 0.277 0.191 0.593 0.355 0.958 0.47 0.846 0.268 1.863 0.247 3.133-0.135 0.441-0.132 0.691-0.597 0.558-1.037s-0.597-0.691-1.037-0.558zM14.167 18.333v-3.16c0.043-0.57-0.047-1.119-0.243-1.618 0.648-0.143 1.303-0.356 1.914-0.686 1.736-0.937 2.913-2.702 2.913-5.769 0-1.252-0.43-2.406-1.149-3.317 0.296-1.121 0.188-2.272-0.244-3.277-0.102-0.236-0.299-0.402-0.528-0.47-0.297-0.088-1.443-0.257-3.644 1.135-1.894-0.451-3.798-0.424-5.538-0.002-2.199-1.391-3.344-1.222-3.642-1.133-0.247 0.073-0.434 0.25-0.529 0.471-0.462 1.077-0.52 2.227-0.243 3.277-0.775 0.982-1.156 2.167-1.149 3.348 0 3.018 1.158 4.769 2.867 5.716 0.627 0.347 1.3 0.571 1.964 0.723-0.154 0.39-0.238 0.801-0.253 1.213-0.004 0.117-0.002 0.236 0.004 0.353l0.001 3.198c0 0.46 0.373 0.833 0.833 0.833s0.833-0.373 0.833-0.833v-3.225c0-0.017-0.001-0.037-0.002-0.057-0.005-0.070-0.006-0.14-0.003-0.21 0.017-0.473 0.201-0.938 0.554-1.303 0.121-0.124 0.205-0.289 0.228-0.477 0.057-0.457-0.268-0.873-0.724-0.93-0.283-0.035-0.564-0.078-0.838-0.133-0.658-0.13-1.265-0.321-1.789-0.611-1.087-0.602-1.992-1.726-2.008-4.202 0.011-1.034 0.349-1.933 1.020-2.638 0.214-0.228 0.292-0.559 0.177-0.867-0.233-0.623-0.284-1.317-0.117-1.993 0.409 0.089 1.128 0.347 2.206 1.068 0.196 0.131 0.444 0.178 0.688 0.111 1.664-0.464 3.535-0.502 5.392 0.002 0.226 0.061 0.474 0.027 0.682-0.112 1.078-0.722 1.797-0.979 2.206-1.068 0.157 0.638 0.131 1.329-0.117 1.993-0.108 0.293-0.048 0.629 0.177 0.867 0.632 0.663 1.020 1.56 1.020 2.55 0 2.563-0.928 3.704-2.037 4.302-0.519 0.28-1.119 0.462-1.769 0.583-0.268 0.050-0.543 0.088-0.819 0.119-0.175 0.019-0.348 0.095-0.487 0.229-0.331 0.32-0.34 0.848-0.020 1.178 0.056 0.058 0.108 0.119 0.157 0.183 0.283 0.374 0.434 0.846 0.395 1.348 0 0.020-0.001 0.043-0.003 0.065v3.227c0 0.46 0.373 0.833 0.833 0.833s0.833-0.373 0.833-0.833z"></path>
</symbol>
<symbol id="icon-instagram" viewBox="0 0 20 20">
<path d="M5.833 0.833c-1.381 0-2.632 0.561-3.536 1.464s-1.464 2.155-1.464 3.536v8.333c0 1.381 0.561 2.632 1.464 3.536s2.155 1.464 3.536 1.464h8.333c1.381 0 2.632-0.561 3.536-1.464s1.464-2.155 1.464-3.536v-8.333c0-1.381-0.561-2.632-1.464-3.536s-2.155-1.464-3.536-1.464zM5.833 2.5h8.333c0.921 0 1.752 0.373 2.357 0.977s0.977 1.436 0.977 2.357v8.333c0 0.921-0.372 1.752-0.977 2.357s-1.436 0.977-2.357 0.977h-8.333c-0.921 0-1.753-0.373-2.357-0.977s-0.977-1.436-0.977-2.357v-8.333c0-0.921 0.373-1.753 0.977-2.357s1.436-0.977 2.357-0.977zM14.158 9.353c-0.125-0.81-0.476-1.548-0.995-2.139-0.628-0.717-1.503-1.221-2.508-1.37-0.387-0.062-0.808-0.064-1.231-0.002-1.138 0.168-2.101 0.784-2.735 1.639s-0.944 1.956-0.775 3.093 0.784 2.101 1.639 2.735 1.956 0.944 3.093 0.775 2.101-0.784 2.735-1.639 0.944-1.956 0.775-3.093zM12.509 9.598c0.102 0.683-0.083 1.341-0.465 1.856s-0.958 0.883-1.641 0.983-1.341-0.083-1.856-0.465-0.883-0.958-0.983-1.641 0.083-1.341 0.465-1.856 0.958-0.882 1.641-0.983c0.261-0.038 0.512-0.035 0.725-0.002 0.617 0.092 1.138 0.392 1.515 0.822 0.313 0.357 0.525 0.803 0.6 1.286zM14.583 6.25c0.46 0 0.833-0.373 0.833-0.833s-0.373-0.833-0.833-0.833-0.833 0.373-0.833 0.833 0.373 0.833 0.833 0.833z"></path>
</symbol>
<symbol id="icon-link" viewBox="0 0 20 20">
<path d="M7.666 11.333c0.827 1.106 2.025 1.772 3.29 1.954s2.602-0.118 3.708-0.945c0.199-0.149 0.387-0.313 0.546-0.473l2.496-2.496c0.969-1.003 1.435-2.293 1.413-3.571s-0.533-2.551-1.526-3.509c-0.977-0.943-2.24-1.41-3.499-1.403-1.243 0.007-2.487 0.476-3.448 1.403l-1.442 1.434c-0.327 0.324-0.328 0.852-0.003 1.178s0.852 0.328 1.178 0.003l1.424-1.416c0.642-0.618 1.469-0.931 2.3-0.936 0.841-0.005 1.68 0.306 2.332 0.935 0.663 0.64 1.003 1.486 1.018 2.34s-0.296 1.712-0.925 2.363l-2.504 2.504c-0.095 0.097-0.219 0.206-0.357 0.308-0.737 0.552-1.627 0.752-2.472 0.63s-1.643-0.565-2.193-1.303c-0.276-0.368-0.798-0.444-1.167-0.168s-0.444 0.797-0.168 1.167zM12.334 8.668c-0.827-1.106-2.025-1.772-3.29-1.954s-2.603 0.118-3.709 0.945c-0.199 0.149-0.387 0.313-0.546 0.473l-2.496 2.496c-0.969 1.003-1.435 2.293-1.413 3.571s0.532 2.551 1.526 3.509c0.977 0.943 2.24 1.41 3.499 1.402 1.243-0.007 2.487-0.476 3.447-1.402l1.436-1.436c0.326-0.326 0.326-0.853 0-1.178s-0.853-0.326-1.178 0l-1.413 1.415c-0.642 0.618-1.469 0.931-2.3 0.936-0.841 0.005-1.68-0.306-2.332-0.935-0.662-0.64-1.002-1.486-1.018-2.34s0.296-1.712 0.925-2.363l2.504-2.504c0.095-0.097 0.219-0.206 0.357-0.308 0.737-0.552 1.627-0.752 2.473-0.63s1.642 0.565 2.193 1.303c0.276 0.368 0.798 0.444 1.167 0.168s0.444-0.798 0.168-1.167z"></path>
</symbol>
<symbol id="icon-linkedin" viewBox="0 0 20 20">
<path d="M13.333 5.833c-1.611 0-3.070 0.654-4.125 1.708s-1.708 2.514-1.708 4.125v5.833c0 0.46 0.373 0.833 0.833 0.833h3.333c0.46 0 0.833-0.373 0.833-0.833v-5.833c0-0.23 0.092-0.437 0.244-0.589s0.359-0.244 0.589-0.244 0.438 0.092 0.589 0.244 0.244 0.359 0.244 0.589v5.833c0 0.46 0.373 0.833 0.833 0.833h3.333c0.46 0 0.833-0.373 0.833-0.833v-5.833c0-1.611-0.654-3.070-1.708-4.125s-2.514-1.708-4.125-1.708zM13.333 7.5c1.151 0 2.192 0.466 2.947 1.22s1.22 1.796 1.22 2.947v5h-1.667v-5c0-0.69-0.281-1.317-0.732-1.768s-1.078-0.732-1.768-0.732-1.317 0.281-1.767 0.732-0.733 1.078-0.733 1.768v5h-1.667v-5c0-1.151 0.466-2.192 1.22-2.947s1.796-1.22 2.947-1.22zM1.667 6.667c-0.46 0-0.833 0.373-0.833 0.833v10c0 0.46 0.373 0.833 0.833 0.833h3.333c0.46 0 0.833-0.373 0.833-0.833v-10c0-0.46-0.373-0.833-0.833-0.833zM2.5 8.333h1.667v8.333h-1.667zM5.833 3.333c0-0.69-0.281-1.317-0.732-1.768s-1.078-0.732-1.768-0.732-1.317 0.281-1.767 0.732-0.733 1.077-0.733 1.768 0.281 1.317 0.733 1.768 1.077 0.732 1.767 0.732 1.317-0.281 1.768-0.732 0.732-1.078 0.732-1.767zM4.167 3.333c0 0.23-0.092 0.438-0.244 0.589s-0.359 0.244-0.589 0.244-0.438-0.092-0.589-0.244-0.244-0.359-0.244-0.589 0.092-0.438 0.244-0.589 0.359-0.244 0.589-0.244 0.438 0.092 0.589 0.244 0.244 0.359 0.244 0.589z"></path>
</symbol>
<symbol id="icon-mail" viewBox="0 0 20 20">
<path d="M2.5 6.601l7.023 4.916c0.283 0.196 0.662 0.205 0.956 0l7.022-4.916v8.399c0 0.227-0.092 0.434-0.246 0.588s-0.361 0.246-0.588 0.246h-13.333c-0.227 0-0.434-0.092-0.587-0.246s-0.246-0.361-0.246-0.588zM0.833 4.986c0 0.008 0 0.017 0 0.025v9.989c0 0.69 0.283 1.316 0.733 1.767s1.077 0.733 1.767 0.733h13.333c0.69 0 1.316-0.283 1.767-0.733s0.733-1.077 0.733-1.767v-9.99c0-0.008 0-0.017 0-0.025-0.004-0.684-0.286-1.304-0.733-1.752-0.451-0.45-1.077-0.733-1.767-0.733h-13.333c-0.69 0-1.316 0.283-1.767 0.733-0.448 0.448-0.729 1.068-0.733 1.752zM17.412 4.628l-7.412 5.188-7.412-5.188c0.040-0.080 0.093-0.152 0.157-0.216 0.154-0.154 0.362-0.246 0.588-0.246h13.333c0.227 0 0.434 0.092 0.588 0.246 0.063 0.063 0.117 0.137 0.157 0.216z"></path>
</symbol>
<symbol id="icon-map-pin" viewBox="0 0 20 20">
<path d="M18.333 8.333c0-2.301-0.933-4.386-2.441-5.893s-3.592-2.441-5.893-2.441-4.386 0.933-5.893 2.441-2.441 3.592-2.441 5.893c0 0.474 0.044 0.94 0.125 1.397 0.228 1.29 0.749 2.503 1.402 3.6 2.277 3.826 6.344 6.53 6.344 6.53 0.276 0.181 0.637 0.191 0.924 0 0 0 4.068-2.704 6.344-6.53 0.652-1.097 1.173-2.31 1.402-3.6 0.082-0.457 0.126-0.923 0.126-1.397zM16.667 8.333c0 0.37-0.034 0.739-0.099 1.107-0.184 1.042-0.614 2.065-1.193 3.038-1.593 2.678-4.197 4.789-5.308 5.617-1.165-0.763-3.823-2.897-5.442-5.617-0.579-0.973-1.009-1.997-1.193-3.038-0.064-0.367-0.098-0.737-0.098-1.107 0-1.841 0.745-3.507 1.953-4.714s2.873-1.952 4.714-1.952 3.507 0.745 4.714 1.952 1.953 2.873 1.953 4.714zM13.333 8.333c0-0.92-0.374-1.755-0.977-2.357s-1.437-0.977-2.357-0.977-1.755 0.374-2.357 0.977-0.977 1.437-0.977 2.357 0.374 1.755 0.977 2.357 1.437 0.977 2.357 0.977 1.755-0.374 2.357-0.977 0.977-1.437 0.977-2.357zM11.667 8.333c0 0.461-0.186 0.876-0.488 1.178s-0.717 0.488-1.178 0.488-0.876-0.186-1.178-0.488-0.488-0.717-0.488-1.178 0.186-0.876 0.488-1.178 0.718-0.488 1.178-0.488 0.876 0.186 1.178 0.488 0.488 0.717 0.488 1.178z"></path>
</symbol>
<symbol id="icon-minus" viewBox="0 0 20 20">
<path d="M4.167 10.833h11.667c0.46 0 0.833-0.373 0.833-0.833s-0.373-0.833-0.833-0.833h-11.667c-0.46 0-0.833 0.373-0.833 0.833s0.373 0.833 0.833 0.833z"></path>
</symbol>
<symbol id="icon-phone" viewBox="0 0 20 20">
<path d="M19.167 14.1c0.013-0.595-0.197-1.17-0.561-1.619-0.383-0.472-0.941-0.806-1.604-0.9-0.667-0.082-1.412-0.262-2.155-0.538-0.361-0.133-0.744-0.182-1.12-0.145-0.553 0.053-1.089 0.291-1.516 0.712l-0.6 0.6c-1.475-0.931-2.8-2.223-3.819-3.824l0.605-0.605c0.268-0.275 0.469-0.605 0.589-0.963 0.177-0.527 0.178-1.113-0.032-1.676-0.241-0.628-0.432-1.37-0.537-2.163-0.087-0.595-0.38-1.121-0.803-1.503-0.449-0.405-1.047-0.649-1.689-0.642h-2.497c-0.073 0-0.152 0.003-0.228 0.010-0.687 0.063-1.285 0.398-1.694 0.888s-0.632 1.139-0.569 1.832c0.25 2.563 1.138 5.202 2.68 7.585 1.252 2.011 3.040 3.853 5.248 5.255 2.14 1.414 4.737 2.385 7.572 2.692 0.077 0.008 0.159 0.011 0.24 0.011 0.69-0.003 1.315-0.286 1.765-0.739s0.728-1.081 0.725-1.768zM17.5 14.1v2.5c0.001 0.233-0.091 0.442-0.242 0.593s-0.358 0.246-0.588 0.247c-2.624-0.28-4.968-1.159-6.886-2.427-2.023-1.286-3.632-2.948-4.752-4.745-1.414-2.183-2.212-4.567-2.437-6.865-0.020-0.223 0.053-0.438 0.191-0.603s0.336-0.275 0.565-0.296l2.573-0.004c0.226-0.002 0.423 0.078 0.572 0.213 0.142 0.128 0.24 0.305 0.269 0.507 0.118 0.893 0.34 1.764 0.631 2.521 0.067 0.18 0.067 0.373 0.008 0.548-0.041 0.121-0.109 0.234-0.202 0.329l-1.052 1.051c-0.27 0.27-0.316 0.678-0.135 1.001 1.32 2.321 3.199 4.131 5.317 5.315 0.331 0.185 0.735 0.12 0.996-0.138l1.058-1.058c0.138-0.137 0.314-0.214 0.498-0.232 0.127-0.012 0.258 0.004 0.382 0.050 0.852 0.318 1.725 0.53 2.528 0.628 0.201 0.028 0.385 0.138 0.512 0.296 0.123 0.151 0.193 0.343 0.188 0.568z"></path>
</symbol>
<symbol id="icon-plus" viewBox="0 0 20 20">
<path d="M4.167 10.833h5v5c0 0.46 0.373 0.833 0.833 0.833s0.833-0.373 0.833-0.833v-5h5c0.46 0 0.833-0.373 0.833-0.833s-0.373-0.833-0.833-0.833h-5v-5c0-0.46-0.373-0.833-0.833-0.833s-0.833 0.373-0.833 0.833v5h-5c-0.46 0-0.833 0.373-0.833 0.833s0.373 0.833 0.833 0.833z"></path>
</symbol>
<symbol id="icon-search" viewBox="0 0 20 20">
<path d="M13.368 13.213c-0.028 0.022-0.056 0.046-0.083 0.072s-0.050 0.053-0.072 0.082c-1.048 1.011-2.474 1.632-4.046 1.632-1.611 0-3.068-0.652-4.125-1.708s-1.708-2.514-1.708-4.125 0.652-3.068 1.708-4.125 2.514-1.708 4.125-1.708 3.068 0.652 4.125 1.708 1.708 2.514 1.708 4.125c0 1.572-0.621 2.998-1.633 4.047zM18.089 16.911l-3.063-3.063c1.026-1.283 1.64-2.911 1.64-4.682 0-2.071-0.84-3.947-2.197-5.303s-3.232-2.197-5.303-2.197-3.947 0.84-5.303 2.197-2.197 3.232-2.197 5.303 0.84 3.947 2.197 5.303 3.233 2.197 5.303 2.197c1.771 0 3.398-0.614 4.682-1.64l3.063 3.063c0.326 0.326 0.853 0.326 1.178 0s0.326-0.853 0-1.178z"></path>
</symbol>
<symbol id="icon-shopping-bag" viewBox="0 0 20 20">
<path d="M15.833 4.167h-11.667l1.25-1.667h9.167zM18.162 4.493l-2.495-3.327c-0.163-0.218-0.412-0.333-0.667-0.333h-10c-0.272 0-0.513 0.13-0.667 0.333l-2.495 3.327c-0.036 0.047-0.068 0.097-0.093 0.152-0.054 0.114-0.080 0.236-0.079 0.355v11.667c0 0.69 0.281 1.317 0.732 1.767s1.078 0.733 1.768 0.733h11.667c0.69 0 1.317-0.281 1.768-0.733s0.732-1.078 0.732-1.767v-11.667c0-0.183-0.059-0.352-0.157-0.487-0.003-0.004-0.006-0.008-0.009-0.013zM3.333 5.833h13.333v10.833c0 0.23-0.092 0.438-0.244 0.589s-0.359 0.244-0.589 0.244h-11.667c-0.23 0-0.437-0.093-0.589-0.244s-0.244-0.359-0.244-0.589zM12.5 8.333c0 0.691-0.279 1.314-0.732 1.768s-1.077 0.732-1.768 0.732-1.314-0.279-1.768-0.732-0.732-1.077-0.732-1.768c0-0.46-0.373-0.833-0.833-0.833s-0.833 0.373-0.833 0.833c0 1.15 0.467 2.193 1.22 2.947s1.797 1.22 2.947 1.22 2.193-0.468 2.947-1.22 1.22-1.797 1.22-2.947c0-0.46-0.373-0.833-0.833-0.833s-0.833 0.373-0.833 0.833z"></path>
</symbol>
<symbol id="icon-shopping-cart" viewBox="0 0 20 20">
<path d="M9.167 17.5c0-0.46-0.188-0.878-0.488-1.178s-0.718-0.488-1.178-0.488-0.878 0.188-1.178 0.488-0.488 0.718-0.488 1.178 0.188 0.878 0.488 1.178 0.718 0.488 1.178 0.488 0.878-0.188 1.178-0.488 0.488-0.718 0.488-1.178zM18.333 17.5c0-0.46-0.188-0.878-0.488-1.178s-0.718-0.488-1.178-0.488-0.878 0.188-1.178 0.488-0.488 0.718-0.488 1.178 0.188 0.878 0.488 1.178 0.718 0.488 1.178 0.488 0.878-0.188 1.178-0.488 0.488-0.718 0.488-1.178zM6.018 5.833h12.142l-1.142 5.993c-0.038 0.19-0.138 0.354-0.277 0.473-0.15 0.13-0.344 0.205-0.573 0.201h-8.112c-0.193 0.002-0.376-0.059-0.522-0.169-0.158-0.119-0.274-0.293-0.316-0.502zM0.833 1.667h2.65l0.707 3.533c0.090 0.364 0.418 0.634 0.81 0.634h1.018l-0.333-1.667h-0.684c-0.46 0-0.833 0.373-0.833 0.833 0 0.044 0.003 0.088 0.010 0.129 0.003 0.023 0.008 0.048 0.014 0.070l1.393 6.956c0.124 0.626 0.475 1.152 0.95 1.509 0.434 0.327 0.975 0.511 1.545 0.502h8.088c0.623 0.012 1.212-0.217 1.662-0.606 0.412-0.355 0.707-0.844 0.821-1.402l1.335-7.002c0.086-0.452-0.21-0.888-0.662-0.975-0.054-0.011-0.108-0.016-0.156-0.015h-13.483l-0.7-3.497c-0.078-0.385-0.414-0.67-0.817-0.67h-3.333c-0.46 0-0.833 0.373-0.833 0.833s0.373 0.833 0.833 0.833z"></path>
</symbol>
<symbol id="icon-smartphone" viewBox="0 0 20 20">
<path d="M5.833 0.833c-0.69 0-1.317 0.281-1.767 0.732s-0.732 1.077-0.732 1.767v13.333c0 0.69 0.281 1.317 0.732 1.768s1.077 0.732 1.767 0.732h8.333c0.69 0 1.317-0.281 1.768-0.732s0.733-1.078 0.733-1.768v-13.333c0-0.69-0.281-1.317-0.733-1.767s-1.078-0.733-1.768-0.733zM5.833 2.5h8.333c0.23 0 0.438 0.092 0.589 0.244s0.244 0.359 0.244 0.589v13.333c0 0.23-0.092 0.437-0.244 0.589s-0.359 0.244-0.589 0.244h-8.333c-0.23 0-0.437-0.092-0.589-0.244s-0.244-0.359-0.244-0.589v-13.333c0-0.23 0.093-0.438 0.244-0.589s0.359-0.244 0.589-0.244zM10 15.833c0.46 0 0.833-0.373 0.833-0.833s-0.373-0.833-0.833-0.833-0.833 0.373-0.833 0.833 0.373 0.833 0.833 0.833z"></path>
</symbol>
<symbol id="icon-thumbs-down" viewBox="0 0 20 20">
<path d="M9.167 12.5c0-0.46-0.373-0.833-0.833-0.833h-4.732c-0.054-0.002-0.127-0.009-0.127-0.009-0.228-0.034-0.418-0.157-0.546-0.33s-0.188-0.392-0.153-0.618l1.15-7.498c0.031-0.199 0.13-0.373 0.271-0.5 0.149-0.134 0.346-0.213 0.572-0.211h8.567v8.157l-3.007 6.765c-0.256-0.082-0.485-0.223-0.672-0.41-0.303-0.303-0.488-0.718-0.488-1.178zM7.5 13.333v2.5c0 0.92 0.374 1.755 0.977 2.357s1.437 0.977 2.357 0.977c0.337 0 0.628-0.201 0.762-0.495l3.333-7.5c0.050-0.112 0.072-0.229 0.072-0.338v-9.167c0-0.46-0.373-0.833-0.833-0.833h-9.4c-0.639-0.007-1.235 0.234-1.684 0.636-0.421 0.377-0.714 0.897-0.806 1.486l-1.15 7.502c-0.104 0.683 0.080 1.345 0.458 1.859s0.956 0.886 1.638 0.989c0.137 0.021 0.277 0.031 0.41 0.028zM14.167 2.5h2.225c0.301-0.005 0.562 0.099 0.76 0.277 0.177 0.159 0.303 0.375 0.348 0.622v5.656c-0.031 0.283-0.173 0.525-0.379 0.694-0.196 0.162-0.447 0.255-0.717 0.251l-2.237 0.001c-0.46 0-0.833 0.373-0.833 0.833s0.373 0.833 0.833 0.833h2.213c0.675 0.010 1.308-0.225 1.8-0.63 0.518-0.426 0.883-1.042 0.98-1.758 0.004-0.033 0.007-0.072 0.007-0.112v-5.833c0-0.035-0.003-0.074-0.008-0.114-0.092-0.669-0.421-1.258-0.896-1.683-0.5-0.448-1.164-0.715-1.872-0.702h-2.225c-0.46 0-0.833 0.373-0.833 0.833s0.373 0.833 0.833 0.833z"></path>
</symbol>
<symbol id="icon-thumbs-up" viewBox="0 0 20 20">
<path d="M10.833 7.5c0 0.46 0.373 0.833 0.833 0.833h4.733c0.054 0.002 0.127 0.009 0.127 0.009 0.228 0.034 0.418 0.157 0.546 0.33s0.188 0.392 0.153 0.618l-1.15 7.498c-0.031 0.199-0.13 0.373-0.271 0.5-0.15 0.134-0.346 0.213-0.572 0.211h-8.567v-8.157l3.007-6.765c0.256 0.082 0.485 0.223 0.672 0.41 0.303 0.302 0.488 0.717 0.488 1.178zM12.5 6.667v-2.5c0-0.92-0.374-1.755-0.977-2.357s-1.437-0.977-2.357-0.977c-0.338 0-0.628 0.201-0.762 0.495l-3.333 7.5c-0.050 0.112-0.072 0.229-0.072 0.338v9.167c0 0.46 0.373 0.833 0.833 0.833h9.4c0.639 0.008 1.235-0.234 1.684-0.636 0.421-0.377 0.714-0.897 0.806-1.486l1.15-7.502c0.104-0.683-0.080-1.345-0.458-1.859s-0.956-0.886-1.637-0.989c-0.137-0.021-0.277-0.031-0.41-0.028zM5.833 17.5h-2.5c-0.23 0-0.438-0.093-0.589-0.244s-0.244-0.359-0.244-0.589v-5.833c0-0.23 0.092-0.438 0.244-0.589s0.359-0.244 0.589-0.244h2.5c0.46 0 0.833-0.373 0.833-0.833s-0.373-0.833-0.833-0.833h-2.5c-0.69 0-1.317 0.281-1.767 0.732s-0.733 1.077-0.733 1.768v5.833c0 0.69 0.281 1.317 0.733 1.768s1.077 0.732 1.767 0.732h2.5c0.46 0 0.833-0.373 0.833-0.833s-0.373-0.833-0.833-0.833z"></path>
</symbol>
<symbol id="icon-trash" viewBox="0 0 20 20">
<path d="M15 5.833v10.833c0 0.23-0.092 0.438-0.244 0.589s-0.359 0.244-0.589 0.244h-8.333c-0.23 0-0.438-0.093-0.589-0.244s-0.244-0.359-0.244-0.589v-10.833zM14.167 4.167v-0.833c0-0.69-0.281-1.317-0.733-1.767s-1.077-0.733-1.767-0.733h-3.333c-0.69 0-1.317 0.281-1.768 0.733s-0.733 1.077-0.733 1.767v0.833h-3.333c-0.46 0-0.833 0.373-0.833 0.833s0.373 0.833 0.833 0.833h0.833v10.833c0 0.69 0.281 1.317 0.732 1.768s1.077 0.732 1.768 0.732h8.333c0.69 0 1.317-0.281 1.768-0.732s0.732-1.078 0.732-1.768v-10.833h0.833c0.46 0 0.833-0.373 0.833-0.833s-0.373-0.833-0.833-0.833zM7.5 4.167v-0.833c0-0.23 0.092-0.438 0.244-0.589s0.359-0.244 0.589-0.244h3.333c0.23 0 0.438 0.092 0.589 0.244s0.244 0.359 0.244 0.589v0.833z"></path>
</symbol>
<symbol id="icon-trash-2" viewBox="0 0 20 20">
<path d="M15 5.833v10.833c0 0.23-0.092 0.438-0.244 0.589s-0.359 0.244-0.589 0.244h-8.333c-0.23 0-0.438-0.093-0.589-0.244s-0.244-0.359-0.244-0.589v-10.833zM14.167 4.167v-0.833c0-0.69-0.281-1.317-0.733-1.767s-1.077-0.733-1.767-0.733h-3.333c-0.69 0-1.317 0.281-1.768 0.733s-0.733 1.077-0.733 1.767v0.833h-3.333c-0.46 0-0.833 0.373-0.833 0.833s0.373 0.833 0.833 0.833h0.833v10.833c0 0.69 0.281 1.317 0.732 1.768s1.077 0.732 1.768 0.732h8.333c0.69 0 1.317-0.281 1.768-0.732s0.732-1.078 0.732-1.768v-10.833h0.833c0.46 0 0.833-0.373 0.833-0.833s-0.373-0.833-0.833-0.833zM7.5 4.167v-0.833c0-0.23 0.092-0.438 0.244-0.589s0.359-0.244 0.589-0.244h3.333c0.23 0 0.438 0.092 0.589 0.244s0.244 0.359 0.244 0.589v0.833zM7.5 9.167v5c0 0.46 0.373 0.833 0.833 0.833s0.833-0.373 0.833-0.833v-5c0-0.46-0.373-0.833-0.833-0.833s-0.833 0.373-0.833 0.833zM10.833 9.167v5c0 0.46 0.373 0.833 0.833 0.833s0.833-0.373 0.833-0.833v-5c0-0.46-0.373-0.833-0.833-0.833s-0.833 0.373-0.833 0.833z"></path>
</symbol>
<symbol id="icon-truck" viewBox="0 0 20 20">
<path d="M12.5 12.5h-10.833v-9.167h10.833v3.333zM14.167 7.5h2.155l2.012 2.012v2.988h-4.167zM5.833 15.417c0 0.345-0.139 0.657-0.366 0.884s-0.539 0.366-0.884 0.366-0.657-0.139-0.884-0.366-0.366-0.539-0.366-0.884 0.139-0.657 0.366-0.884 0.539-0.366 0.884-0.366 0.657 0.139 0.884 0.366 0.366 0.539 0.366 0.884zM18.333 15.417c0-0.448-0.101-0.871-0.281-1.25h1.114c0.46 0 0.833-0.373 0.833-0.833v-4.167c0-0.213-0.082-0.427-0.244-0.589l-2.5-2.5c-0.151-0.151-0.359-0.244-0.589-0.244h-2.5v-3.333c0-0.46-0.373-0.833-0.833-0.833h-12.5c-0.46 0-0.833 0.373-0.833 0.833v10.833c0 0.46 0.373 0.833 0.833 0.833h1.114c-0.18 0.379-0.281 0.803-0.281 1.25 0 0.805 0.327 1.536 0.854 2.063s1.258 0.854 2.063 0.854 1.536-0.328 2.063-0.854 0.854-1.258 0.854-2.063c0-0.447-0.101-0.871-0.281-1.25h5.562c-0.18 0.379-0.281 0.803-0.281 1.25 0 0.805 0.328 1.536 0.854 2.063s1.258 0.854 2.063 0.854 1.536-0.328 2.063-0.854 0.854-1.258 0.854-2.063zM16.667 15.417c0 0.345-0.139 0.657-0.366 0.884s-0.539 0.366-0.884 0.366-0.657-0.139-0.884-0.366-0.366-0.539-0.366-0.884 0.139-0.657 0.366-0.884 0.539-0.366 0.884-0.366 0.657 0.139 0.884 0.366 0.366 0.539 0.366 0.884z"></path>
</symbol>
<symbol id="icon-x" viewBox="0 0 20 20">
<path d="M4.411 5.589l4.411 4.411-4.411 4.411c-0.326 0.326-0.326 0.853 0 1.178s0.853 0.326 1.178 0l4.411-4.411 4.411 4.411c0.326 0.326 0.853 0.326 1.178 0s0.326-0.853 0-1.178l-4.411-4.411 4.411-4.411c0.326-0.326 0.326-0.853 0-1.178s-0.853-0.326-1.178 0l-4.411 4.411-4.411-4.411c-0.326-0.326-0.853-0.326-1.178 0s-0.326 0.853 0 1.178z"></path>
</symbol>
<symbol id="icon-x-circle" viewBox="0 0 20 20">
<path d="M19.167 10c0-2.531-1.027-4.824-2.685-6.482s-3.951-2.685-6.482-2.685-4.824 1.027-6.482 2.685-2.685 3.951-2.685 6.482 1.027 4.824 2.685 6.482 3.951 2.685 6.482 2.685 4.824-1.027 6.482-2.685 2.685-3.951 2.685-6.482zM17.5 10c0 2.072-0.838 3.945-2.197 5.303s-3.232 2.197-5.303 2.197-3.945-0.838-5.303-2.197-2.197-3.232-2.197-5.303 0.838-3.945 2.197-5.303 3.232-2.197 5.303-2.197 3.945 0.838 5.303 2.197 2.197 3.232 2.197 5.303zM6.911 8.089l1.911 1.911-1.911 1.911c-0.326 0.326-0.326 0.853 0 1.178s0.853 0.326 1.178 0l1.911-1.911 1.911 1.911c0.326 0.326 0.853 0.326 1.178 0s0.326-0.853 0-1.178l-1.911-1.911 1.911-1.911c0.326-0.326 0.326-0.853 0-1.178s-0.853-0.326-1.178 0l-1.911 1.911-1.911-1.911c-0.326-0.326-0.853-0.326-1.178 0s-0.326 0.853 0 1.178z"></path>
</symbol>
</defs>
</svg>
